<?xml version="1.0" encoding="UTF-8"?>
<svg width="130px" height="44px" viewBox="0 0 130 44" version="1.1" xmlns="http://www.w3.org/2000/svg" xmlns:xlink="http://www.w3.org/1999/xlink">
    <!-- Generator: Sketch 50.2 (55047) - http://www.bohemiancoding.com/sketch -->
    <title>Page 1</title>
    <desc>Created with Sketch.</desc>
    <defs>
        <polygon id="path-1" points="0.18327795 0.0106754212 39.6538698 0.0106754212 39.6538698 31.6824876 0.18327795 31.6824876"></polygon>
        <polygon id="path-3" points="0 0.0667100911 63.4253078 0.0667100911 63.4253078 43.9243398 0 43.9243398"></polygon>
    </defs>
    <g id="Page-1" stroke="none" stroke-width="1" fill="none" fill-rule="evenodd">
        <g id="Home---Desktop" transform="translate(-42.000000, -23.000000)">
            <g id="Group-2" transform="translate(42.000000, 23.000000)">
                <g id="Page-1">
                    <path d="M38.8274669,26.7641495 C38.8274669,27.6729139 39.0168422,28.3627475 39.3953218,28.8304267 C39.7710922,29.2994491 40.3259427,29.5323485 41.0552678,29.5323485 C42.1617178,29.5323485 42.9804475,29.1809847 43.5133533,28.480406 C44.04653,27.775798 44.3136602,26.695381 44.3136602,25.2367376 L44.3136602,12.171805 L46.1591885,12.171805 L48.025307,12.171805 L48.025307,31.839584 L46.1805915,31.839584 L44.3136602,31.839584 L44.3136602,30.1969312 L44.2938828,30.2146606 C43.0495329,31.5940592 41.6052417,32.2817437 39.9572164,32.2817437 C38.4034722,32.2817437 37.2081594,31.864835 36.3718197,31.0369272 C35.5330417,30.2084822 35.1152783,29.0251812 35.1152783,27.4889046 L35.1152783,12.171805 L36.9621612,12.171805 L38.8274669,12.171805 L38.8274669,26.7641495 Z" id="Fill-1" fill="#FFFFFF"></path>
                    <path d="M59.5123702,17.8214436 L59.5123702,17.2319156 C59.5523059,16.2544052 59.4047886,15.5386076 59.0722635,15.0818245 C58.7389234,14.6290885 58.192865,14.4016413 57.4319151,14.4016413 C56.7391545,14.4016413 56.2183615,14.567033 55.8714378,14.8970068 C55.5242425,15.22779 55.3522749,15.7242347 55.3522749,16.3858012 C55.3522749,17.0578901 55.5277742,17.6139621 55.879588,18.0429551 C56.2297717,18.4638538 57.0464142,19.1243411 58.3300588,20.0265753 C60.3953004,21.4767873 61.7794633,22.6331796 62.4825474,23.4938636 C63.1715046,24.3515797 63.5173416,25.3396125 63.5173416,26.4528357 C63.5173416,28.3225975 62.9794333,29.7601286 61.9022585,30.7670479 C60.8258987,31.7772049 59.2985653,32.2817437 57.3216167,32.2817437 C55.1944341,32.2817437 53.6160267,31.7901556 52.5866659,30.810217 C51.5977841,29.9004282 51.1104066,28.5435693 51.1239902,26.7474649 L51.1239902,26.4072384 L51.1239902,25.8244555 L54.7907313,25.8244555 L54.7907313,26.4096666 C54.7369405,27.4473439 54.9219483,28.2243878 55.3460265,28.7429566 C55.772278,29.2612556 56.4278197,29.5200004 57.318085,29.5200004 C58.168958,29.5200004 58.801951,29.3192641 59.2211391,28.9148236 C59.6384255,28.5098435 59.847612,27.9043968 59.847612,27.0938969 C59.847612,26.3818765 59.60827,25.7389267 59.1293144,25.1709832 C58.6566071,24.6084359 57.7201578,23.8330109 56.319423,22.8479459 C54.4707031,21.5590784 53.2389475,20.5044033 52.6176364,19.6831111 C51.9963252,18.864517 51.6830887,17.8924028 51.6830887,16.7611026 C51.6830887,15.1233748 52.182963,13.8598691 53.181625,12.9719346 C54.1808303,12.0858888 55.5986803,11.6425961 57.4351751,11.6425961 C59.4865615,11.6425961 60.9706992,12.0875077 61.888675,12.9751723 C62.7672584,13.8094152 63.1994867,15.1039487 63.1853598,16.855535 L63.1801981,17.2389306 L63.1801981,17.8214436 L59.5123702,17.8214436 Z" id="Fill-3" fill="#FFFFFF"></path>
                    <path d="M72.7232858,29.9206805 C73.5853813,29.9206805 74.2407581,29.5441398 74.6853523,28.7971273 C75.1299464,28.0468045 75.3510243,26.9544227 75.3510243,25.5227406 L75.3510243,18.0079266 C75.3510243,16.8369265 75.1348232,15.9655038 74.7037754,15.3884172 C74.2738114,14.8105032 73.6211439,14.5214082 72.7441473,14.5214082 C71.7441491,14.5214082 71.0004495,14.9053969 70.5095265,15.6772363 C70.0161651,16.4457655 69.7850629,17.6026971 69.811072,19.1441691 L69.811072,26.0595524 C69.811072,27.380893 70.0459673,28.3565885 70.5195509,28.9830529 C70.9898833,29.608138 71.7262678,29.9206805 72.7232858,29.9206805 Z M66.0993473,12.0933415 L67.9441016,12.0933415 L69.811072,12.0933415 L69.811072,14.3170004 L69.8324754,14.2968631 C71.0966292,12.5275357 72.5479949,11.6425961 74.1890107,11.6425961 C75.801579,11.6425961 77.0082959,12.1945799 77.8105161,13.2924787 C78.6092142,14.3912051 79.0093761,16.0388809 79.0093761,18.2360578 L79.0093761,25.7370791 C79.0093761,28.1681802 78.598648,29.9446798 77.7796302,31.0613367 C76.9603415,32.1799246 75.660425,32.744046 73.8861123,32.744046 C72.1242622,32.744046 70.8327446,32.2072341 70.0137268,31.1366448 L69.811072,30.8696182 L69.811072,41.8075042 L66.0993473,41.8075042 L66.0993473,12.0933415 Z" id="Fill-5" fill="#FFFFFF"></path>
                    <polygon id="Fill-7" fill="#FFFFFF" points="82.6241841 12.171805 84.4203801 12.171805 86.2389922 12.171805 86.2389922 32.2817437 84.4412139 32.2817437 82.6241841 32.2817437"></polygon>
                    <path d="M99.083693,20.4722963 L99.083693,18.9049881 C99.083693,17.1876672 98.881659,16.0086111 98.4832328,15.3653915 C98.0807767,14.7213625 97.3545826,14.4016413 96.2995458,14.4016413 C95.3251077,14.4016413 94.6190632,14.7553582 94.1859796,15.4568561 C93.751284,16.1613218 93.5350109,17.3088105 93.5350109,18.9049881 L93.5350109,20.4722963 L99.083693,20.4722963 Z M96.3016951,32.2817437 C93.9296758,32.2817437 92.2650443,31.704357 91.2997407,30.5574079 C90.3341684,29.4085702 89.8538002,27.4354724 89.8538002,24.6416221 L89.8538002,18.8788168 C89.8538002,16.4187176 90.3801097,14.5977909 91.4305792,13.4144179 C92.4794368,12.2342826 94.1032316,11.6425961 96.2995458,11.6425961 C98.534816,11.6425961 100.171238,12.2186338 101.209886,13.3707092 C102.246117,14.5260223 102.763829,16.3580111 102.763829,18.8647869 L102.763829,23.2308019 L93.5350109,23.2308019 L93.5350109,24.6909968 C93.5350109,26.6546513 93.7160893,27.9481055 94.076634,28.5778348 C94.4355668,29.2067546 95.1776121,29.5202702 96.3016951,29.5202702 C97.2645807,29.5202702 97.9690132,29.276095 98.4176792,28.7847767 C98.8655393,28.2934583 99.0683793,27.5398877 99.0288859,26.5186686 L99.0288859,25.9334575 L102.712515,25.9334575 L102.712515,26.5146215 C102.804128,28.4707215 102.323223,29.9214731 101.273828,30.8649878 C100.222552,31.8068836 98.5635629,32.2817437 96.3016951,32.2817437 Z" id="Fill-9" fill="#FFFFFF"></path>
                    <path d="M105.345835,12.0816085 L107.185077,12.0816085 L109.041312,12.0816085 L109.041312,13.6885444 L109.122498,13.6079424 C110.35837,12.2960099 111.817572,11.6425961 113.498756,11.6425961 C115.015949,11.6425961 116.186817,12.0555472 117.015946,12.8787626 C117.839141,13.7019781 118.255864,14.8690955 118.255864,16.3798463 L118.255864,31.7525348 L116.470296,31.7525348 L114.668815,31.7525348 L114.668815,17.6044599 C114.668815,16.5598575 114.449261,15.7635094 114.012579,15.2143409 C113.571312,14.6651724 112.928292,14.3900508 112.077855,14.3900508 C111.037802,14.3900508 110.272058,14.7398636 109.781971,15.4359965 C109.287569,16.1321294 109.041312,17.2087039 109.041312,18.6713621 L109.041312,31.7525348 L107.203958,31.7525348 L105.345835,31.7525348 L105.345835,12.0816085 Z" id="Fill-11" fill="#FFFFFF"></path>
                    <g id="Group-15" transform="translate(89.853800, 0.000000)">
                        <mask id="mask-2" fill="white">
                            <use xlink:href="#path-1"></use>
                        </mask>
                        <g id="Clip-14"></g>
                        <polygon id="Fill-13" fill="#FFFFFF" mask="url(#mask-2)" points="31.714722 31.6715385 31.714722 8.23050338 0.18327795 8.23050338 0.18327795 5.48692014 31.714722 5.48692014 31.714722 0.0263053327 35.3228749 0.0104290653 35.3228749 5.48692014 39.6538698 5.48692014 39.6538698 8.23050338 35.3228749 8.23050338 35.3228749 31.6824876"></polygon>
                    </g>
                    <path d="M86.7553933,7.67407526 C86.7553933,8.98915001 85.7153724,10.0549694 84.4317213,10.0549694 C83.1491353,10.0549694 82.107783,8.98915001 82.107783,7.67407526 C82.107783,6.35708947 83.1491353,5.29208914 84.4317213,5.29208914 C85.7153724,5.29208914 86.7553933,6.35708947 86.7553933,7.67407526" id="Fill-16" fill="#FFFFFF"></path>
                    <g id="Group-20">
                        <mask id="mask-4" fill="white">
                            <use xlink:href="#path-3"></use>
                        </mask>
                        <g id="Clip-19"></g>
                        <path d="M27.941438,4.094023 L27.941438,20.0948364 L18.9004487,20.0948364 L27.941438,4.094023 Z M8.22129668,38.1749183 L17.2024893,23.0729067 L27.7931423,23.0729067 L27.7795884,32.2832917 L31.7997843,32.2712125 L31.7907484,0.0960844934 L25.9575177,0.0667100911 L1.56845312,41.3819441 L1.57695753,41.3819441 L-7.97288806e-05,43.9243398 L5.27956675,43.9243398 C9.59157037,40.0568017 35.301211,33.495878 63.4253078,37.8364263 L63.4253078,37.5599775 C45.2521726,33.4245009 19.9863561,35.2772845 8.22129668,38.1749183 Z" id="Fill-18" fill="#1DC4C4" mask="url(#mask-4)"></path>
                    </g>
                </g>
            </g>
        </g>
    </g>
</svg>